<svg width="84" height="79" viewBox="0 0 84 79" fill="none" xmlns="http://www.w3.org/2000/svg">
<g filter="url(#filter0_d_196_1200)">
<path d="M0 15C0 6.71573 6.71573 0 15 0H65C73.2843 0 80 6.71573 80 15V60C80 68.2843 73.2843 75 65 75H15C6.71573 75 0 68.2843 0 60V15Z" fill="#D9D9D9"/>
</g>
<path d="M64 37.5C64 24.521 53.479 14 40.5 14C27.521 14 17 24.521 17 37.5C17 50.479 27.521 61 40.5 61" stroke="#CC0001" stroke-width="2.5" stroke-linecap="round"/>
<path d="M59.3 22.6927C57.1027 22.8501 54.2898 23.7032 52.3393 26.2271C48.8143 30.7861 45.2916 31.1691 42.9416 29.6487C39.4166 27.3692 42.38 23.6726 38.244 21.6657C35.5485 20.3568 35.1725 16.7965 36.6742 14M17 35.15C18.793 36.7057 21.3005 38.1298 24.2592 38.1298C30.3691 38.1298 31.5911 39.2978 31.5911 43.9672C31.5911 48.6367 31.5911 48.6367 32.8131 52.1382C33.6074 54.4177 33.8847 56.6925 32.3008 58.65" stroke="#CC0001" stroke-width="2.5" stroke-linejoin="round"/>
<path d="M59.0627 56.1332L64.0001 61M61.9039 49.3581C61.9027 50.608 61.6553 51.8453 61.1758 52.9996C60.6964 54.1538 59.9943 55.2023 59.1096 56.0852C58.225 56.9682 57.1751 57.6682 56.0199 58.1453C54.8647 58.6225 53.6269 58.8674 52.377 58.8662C51.1271 58.8674 49.8893 58.6225 48.7341 58.1453C47.5789 57.6682 46.529 56.9682 45.6444 56.0852C44.7597 55.2023 44.0576 54.1538 43.5782 52.9996C43.0987 51.8453 42.8513 50.608 42.8501 49.3581C42.8513 48.1083 43.0987 46.8709 43.5782 45.7166C44.0576 44.5624 44.7597 43.5139 45.6444 42.631C46.529 41.7481 47.5789 41.048 48.7341 40.5709C49.8893 40.0937 51.1271 39.8488 52.377 39.85C53.6269 39.8488 54.8647 40.0937 56.0199 40.5709C57.1751 41.048 58.225 41.7481 59.1096 42.631C59.9943 43.5139 60.6964 44.5624 61.1758 45.7166C61.6553 46.8709 61.9027 48.1083 61.9039 49.3581Z" stroke="#CC0001" stroke-width="2.5" stroke-linecap="round"/>
<defs>
<filter id="filter0_d_196_1200" x="0" y="0" width="84" height="79" filterUnits="userSpaceOnUse" color-interpolation-filters="sRGB">
<feFlood flood-opacity="0" result="BackgroundImageFix"/>
<feColorMatrix in="SourceAlpha" type="matrix" values="0 0 0 0 0 0 0 0 0 0 0 0 0 0 0 0 0 0 127 0" result="hardAlpha"/>
<feOffset dx="2" dy="2"/>
<feGaussianBlur stdDeviation="1"/>
<feComposite in2="hardAlpha" operator="out"/>
<feColorMatrix type="matrix" values="0 0 0 0 0.92549 0 0 0 0 0.00784314 0 0 0 0 0.00392157 0 0 0 1 0"/>
<feBlend mode="normal" in2="BackgroundImageFix" result="effect1_dropShadow_196_1200"/>
<feBlend mode="normal" in="SourceGraphic" in2="effect1_dropShadow_196_1200" result="shape"/>
</filter>
</defs>
</svg>
